<?xml version="1.0" encoding="UTF-8"?>
<!-- Generated by jsxcad -->
<!DOCTYPE svg PUBLIC "-//W3C//DTD SVG 1.1 Tiny//EN" "http://www.w3.org/Graphics/SVG/1.1/DTD/svg11-tiny.dtd">
<svg baseProfile="tiny" height="41.00000mm" width="733.40000mm" viewBox="-0.00000 -0.00000 733.40000 41.00000" version="1.1" stroke="black" stroke-width=".1" fill="none" xmlns="http://www.w3.org/2000/svg">
<path fill="#000000" stroke="#000000" d="M0.00000 0.00000 L100.00000 0.00000 L100.00000 41.00000 L0.00000 41.00000 z"/>
<path fill="#000000" stroke="#000000" d="M633.40000 0.00000 L733.40000 0.00000 L733.40000 41.00000 L633.40000 41.00000 z"/>
<path fill="#000000" stroke="#000000" d="M100.00000 0.00000 L633.40000 0.00000 L633.40000 41.00000 L100.00000 41.00000 z M177.59857 19.86568 L177.42065 19.16293 L176.98497 17.44210 L176.58614 16.83120 L175.60951 15.33531 L175.03707 14.88937 L173.63536 13.79740 L172.94719 13.56043 L171.26207 12.98017 L170.53015 12.98017 L168.73793 12.98017 L168.04976 13.21714 L166.36464 13.79740 L164.96293 14.88937 L164.39049 15.33531 L163.41476 16.82983 L163.01592 17.44072 L163.01503 17.44210 L163.01463 17.44368 L162.83670 18.14644 L162.69751 18.69621 L162.40143 19.86568 L162.46180 20.59386 L162.60962 22.37692 L162.90069 23.04056 L163.61342 24.66560 L164.81932 25.97762 L165.31179 26.51343 L165.95413 26.86122 L167.52703 27.71284 L169.28292 28.00549 L170.00000 28.12500 L171.75589 27.83235 L172.47297 27.71284 L174.04587 26.86122 L174.68821 26.51343 L175.89300 25.20262 L176.38547 24.66681 L176.38658 24.66560 L176.38723 24.66411 L176.67830 24.00047 L176.79511 23.73414 L177.39038 22.37692 L177.45075 21.64875 z M247.59857 19.86568 L247.42065 19.16293 L246.98497 17.44210 L246.58614 16.83120 L245.60951 15.33531 L245.03707 14.88937 L243.63536 13.79740 L242.94719 13.56043 L241.26207 12.98017 L240.53015 12.98017 L238.73793 12.98017 L238.04976 13.21714 L236.36464 13.79740 L234.96293 14.88937 L234.39049 15.33531 L233.41476 16.82983 L233.01592 17.44072 L233.01503 17.44210 L233.01463 17.44368 L232.83670 18.14644 L232.69751 18.69621 L232.40143 19.86568 L232.46180 20.59386 L232.60962 22.37692 L232.90069 23.04056 L233.61342 24.66560 L234.81932 25.97762 L235.31179 26.51343 L235.95413 26.86122 L237.52703 27.71284 L239.28292 28.00549 L240.00000 28.12500 L241.75589 27.83235 L242.47297 27.71284 L244.04587 26.86122 L244.68821 26.51343 L245.89300 25.20262 L246.38547 24.66681 L246.38658 24.66560 L246.38723 24.66411 L246.67830 24.00047 L246.79511 23.73414 L247.39038 22.37692 L247.45075 21.64875 z M495.86180 20.59386 L496.00962 22.37692 L496.30069 23.04056 L497.01342 24.66560 L498.21932 25.97762 L498.71179 26.51343 L499.35413 26.86122 L500.92703 27.71284 L502.68292 28.00549 L503.40000 28.12500 L505.15589 27.83235 L505.87297 27.71284 L507.44587 26.86122 L508.08821 26.51343 L509.29300 25.20262 L509.78547 24.66681 L509.78658 24.66560 L509.78723 24.66411 L510.07830 24.00047 L510.19511 23.73414 L510.79038 22.37692 L510.85075 21.64875 L510.99857 19.86568 L510.82065 19.16293 L510.38497 17.44210 L509.98614 16.83120 L509.00951 15.33531 L508.43707 14.88937 L507.03536 13.79740 L506.34719 13.56043 L504.66207 12.98017 L503.93015 12.98017 L502.13793 12.98017 L501.44976 13.21714 L499.76464 13.79740 L498.36293 14.88937 L497.79049 15.33531 L496.81476 16.82983 L496.41592 17.44072 L496.41503 17.44210 L496.41463 17.44368 L496.23670 18.14644 L496.09751 18.69621 L495.80143 19.86568 z M580.99857 19.86568 L580.82065 19.16293 L580.38497 17.44210 L579.98614 16.83120 L579.00951 15.33531 L578.43707 14.88937 L577.03536 13.79740 L576.34719 13.56043 L574.66207 12.98017 L573.93015 12.98017 L572.13793 12.98017 L571.44976 13.21714 L569.76464 13.79740 L568.36293 14.88937 L567.79049 15.33531 L566.81476 16.82983 L566.41592 17.44072 L566.41503 17.44210 L566.41463 17.44368 L566.23670 18.14644 L566.09751 18.69621 L565.80143 19.86568 L565.86180 20.59386 L566.00962 22.37692 L566.30069 23.04056 L567.01342 24.66560 L568.21932 25.97762 L568.71179 26.51343 L569.35413 26.86122 L570.92703 27.71284 L572.68292 28.00549 L573.40000 28.12500 L575.15589 27.83235 L575.87297 27.71284 L577.44587 26.86122 L578.08821 26.51343 L579.29300 25.20262 L579.78547 24.66681 L579.78658 24.66560 L579.78723 24.66411 L580.07830 24.00047 L580.19511 23.73414 L580.79038 22.37692 L580.85075 21.64875 z"/>
<path fill="#000000" stroke="#000000" d="M162.40143 19.86568 L162.69751 18.69621 L162.83670 18.14644 L163.01463 17.44368 L163.01503 17.44210 L163.01592 17.44072 L163.41476 16.82983 L164.39049 15.33531 L164.96293 14.88937 L166.36464 13.79740 L168.04976 13.21714 L168.73793 12.98017 L170.53015 12.98017 L171.26207 12.98017 L172.94719 13.56043 L173.63536 13.79740 L175.03707 14.88937 L175.60951 15.33531 L176.58614 16.83120 L176.98497 17.44210 L177.42065 19.16293 L177.59857 19.86568 L177.45075 21.64875 L177.39038 22.37692 L176.79511 23.73414 L176.67830 24.00047 L176.38723 24.66411 L176.38658 24.66560 L176.38547 24.66681 L175.89300 25.20262 L174.68821 26.51343 L174.04587 26.86122 L172.47297 27.71284 L171.75589 27.83235 L170.00000 28.12500 L169.28292 28.00549 L167.52703 27.71284 L165.95413 26.86122 L165.31179 26.51343 L164.81932 25.97762 L163.61342 24.66560 L162.90069 23.04056 L162.60962 22.37692 L162.46180 20.59386 z M176.32551 21.08970 L176.17807 19.49441 L176.11028 18.76095 L175.39439 17.32551 L175.06525 16.66553 L173.88246 15.58971 L173.33865 15.09507 L171.85428 14.52032 L171.17180 14.25606 L169.56634 14.25606 L168.82820 14.25606 L167.34382 14.83082 L166.66135 15.09507 L165.47856 16.17090 L164.93475 16.66553 L164.21886 18.10097 L163.88972 18.76095 L163.74228 20.35623 L163.67449 21.08970 L164.11230 22.62630 L164.31360 23.33279 L165.27878 24.60995 L165.72254 25.19715 L167.08450 26.03904 L167.71068 26.42612 L169.27896 26.71851 L170.00000 26.85294 L171.56827 26.56055 L172.28932 26.42612 L173.65127 25.58423 L174.27746 25.19715 L175.24264 23.91999 L175.68640 23.33279 L176.12422 21.79618 z"/>
<path fill="#000000" stroke="#000000" d="M176.12422 21.79618 L175.68640 23.33279 L175.24264 23.91999 L174.27746 25.19715 L173.65127 25.58423 L172.28932 26.42612 L171.56827 26.56055 L170.00000 26.85294 L169.27896 26.71851 L167.71068 26.42612 L167.08450 26.03904 L165.72254 25.19715 L165.27878 24.60995 L164.31360 23.33279 L164.11230 22.62630 L163.67449 21.08970 L163.74228 20.35623 L163.88972 18.76095 L164.21886 18.10097 L164.93475 16.66553 L165.47856 16.17090 L166.66135 15.09507 L167.34382 14.83082 L168.82820 14.25606 L169.56634 14.25606 L171.17180 14.25606 L171.85428 14.52032 L173.33865 15.09507 L173.88246 15.58971 L175.06525 16.66553 L175.39439 17.32551 L176.11028 18.76095 L176.17807 19.49441 L176.32551 21.08970 z"/>
<path fill="#000000" stroke="#000000" d="M232.40143 19.86568 L232.69751 18.69621 L232.83670 18.14644 L233.01463 17.44368 L233.01503 17.44210 L233.01592 17.44072 L233.41476 16.82983 L234.39049 15.33531 L234.96293 14.88937 L236.36464 13.79740 L238.04976 13.21714 L238.73793 12.98017 L240.53015 12.98017 L241.26207 12.98017 L242.94719 13.56043 L243.63536 13.79740 L245.03707 14.88937 L245.60951 15.33531 L246.58614 16.83120 L246.98497 17.44210 L247.42065 19.16293 L247.59857 19.86568 L247.45075 21.64875 L247.39038 22.37692 L246.79511 23.73414 L246.67830 24.00047 L246.38723 24.66411 L246.38658 24.66560 L246.38547 24.66681 L245.89300 25.20262 L244.68821 26.51343 L244.04587 26.86122 L242.47297 27.71284 L241.75589 27.83235 L240.00000 28.12500 L239.28292 28.00549 L237.52703 27.71284 L235.95413 26.86122 L235.31179 26.51343 L234.81932 25.97762 L233.61342 24.66560 L232.90069 23.04056 L232.60962 22.37692 L232.46180 20.59386 z M246.32551 21.08970 L246.17807 19.49441 L246.11028 18.76095 L245.39439 17.32551 L245.06525 16.66553 L243.88246 15.58971 L243.33865 15.09507 L241.85428 14.52032 L241.17180 14.25606 L239.56634 14.25606 L238.82820 14.25606 L237.34382 14.83082 L236.66135 15.09507 L235.47856 16.17090 L234.93475 16.66553 L234.21886 18.10097 L233.88972 18.76095 L233.74228 20.35623 L233.67449 21.08970 L234.11230 22.62630 L234.31360 23.33279 L235.27878 24.60995 L235.72254 25.19715 L237.08450 26.03904 L237.71068 26.42612 L239.27896 26.71851 L240.00000 26.85294 L241.56827 26.56055 L242.28932 26.42612 L243.65127 25.58423 L244.27746 25.19715 L245.24264 23.91999 L245.68640 23.33279 L246.12422 21.79618 z"/>
<path fill="#000000" stroke="#000000" d="M246.12422 21.79618 L245.68640 23.33279 L245.24264 23.91999 L244.27746 25.19715 L243.65127 25.58423 L242.28932 26.42612 L241.56827 26.56055 L240.00000 26.85294 L239.27896 26.71851 L237.71068 26.42612 L237.08450 26.03904 L235.72254 25.19715 L235.27878 24.60995 L234.31360 23.33279 L234.11230 22.62630 L233.67449 21.08970 L233.74228 20.35623 L233.88972 18.76095 L234.21886 18.10097 L234.93475 16.66553 L235.47856 16.17090 L236.66135 15.09507 L237.34382 14.83082 L238.82820 14.25606 L239.56634 14.25606 L241.17180 14.25606 L241.85428 14.52032 L243.33865 15.09507 L243.88246 15.58971 L245.06525 16.66553 L245.39439 17.32551 L246.11028 18.76095 L246.17807 19.49441 L246.32551 21.08970 z"/>
<path fill="#000000" stroke="#000000" d="M565.80143 19.86568 L566.09751 18.69621 L566.23670 18.14644 L566.41463 17.44368 L566.41503 17.44210 L566.41592 17.44072 L566.81476 16.82983 L567.79049 15.33531 L568.36293 14.88937 L569.76464 13.79740 L571.44976 13.21714 L572.13793 12.98017 L573.93015 12.98017 L574.66207 12.98017 L576.34719 13.56043 L577.03536 13.79740 L578.43707 14.88937 L579.00951 15.33531 L579.98614 16.83120 L580.38497 17.44210 L580.82065 19.16293 L580.99857 19.86568 L580.85075 21.64875 L580.79038 22.37692 L580.19511 23.73414 L580.07830 24.00047 L579.78723 24.66411 L579.78658 24.66560 L579.78547 24.66681 L579.29300 25.20262 L578.08821 26.51343 L577.44587 26.86122 L575.87297 27.71284 L575.15589 27.83235 L573.40000 28.12500 L572.68292 28.00549 L570.92703 27.71284 L569.35413 26.86122 L568.71179 26.51343 L568.21932 25.97762 L567.01342 24.66560 L566.30069 23.04056 L566.00962 22.37692 L565.86180 20.59386 z M579.72551 21.08970 L579.57807 19.49441 L579.51028 18.76095 L578.79439 17.32551 L578.46525 16.66553 L577.28246 15.58971 L576.73865 15.09507 L575.25428 14.52032 L574.57180 14.25606 L572.96634 14.25606 L572.22820 14.25606 L570.74382 14.83082 L570.06135 15.09507 L568.87856 16.17090 L568.33475 16.66553 L567.61886 18.10097 L567.28972 18.76095 L567.14228 20.35623 L567.07449 21.08970 L567.51230 22.62630 L567.71360 23.33279 L568.67878 24.60995 L569.12254 25.19715 L570.48450 26.03904 L571.11068 26.42612 L572.67896 26.71851 L573.40000 26.85294 L574.96827 26.56055 L575.68932 26.42612 L577.05127 25.58423 L577.67746 25.19715 L578.64264 23.91999 L579.08640 23.33279 L579.52422 21.79618 z"/>
<path fill="#000000" stroke="#000000" d="M579.52422 21.79618 L579.08640 23.33279 L578.64264 23.91999 L577.67746 25.19715 L577.05127 25.58423 L575.68932 26.42612 L574.96827 26.56055 L573.40000 26.85294 L572.67896 26.71851 L571.11068 26.42612 L570.48450 26.03904 L569.12254 25.19715 L568.67878 24.60995 L567.71360 23.33279 L567.51230 22.62630 L567.07449 21.08970 L567.14228 20.35623 L567.28972 18.76095 L567.61886 18.10097 L568.33475 16.66553 L568.87856 16.17090 L570.06135 15.09507 L570.74382 14.83082 L572.22820 14.25606 L572.96634 14.25606 L574.57180 14.25606 L575.25428 14.52032 L576.73865 15.09507 L577.28246 15.58971 L578.46525 16.66553 L578.79439 17.32551 L579.51028 18.76095 L579.57807 19.49441 L579.72551 21.08970 z"/>
<path fill="#000000" stroke="#000000" d="M495.80143 19.86568 L496.09751 18.69621 L496.23670 18.14644 L496.41463 17.44368 L496.41503 17.44210 L496.41592 17.44072 L496.81476 16.82983 L497.79049 15.33531 L498.36293 14.88937 L499.76464 13.79740 L501.44976 13.21714 L502.13793 12.98017 L503.93015 12.98017 L504.66207 12.98017 L506.34719 13.56043 L507.03536 13.79740 L508.43707 14.88937 L509.00951 15.33531 L509.98614 16.83120 L510.38497 17.44210 L510.82065 19.16293 L510.99857 19.86568 L510.85075 21.64875 L510.79038 22.37692 L510.19511 23.73414 L510.07830 24.00047 L509.78723 24.66411 L509.78658 24.66560 L509.78547 24.66681 L509.29300 25.20262 L508.08821 26.51343 L507.44587 26.86122 L505.87297 27.71284 L505.15589 27.83235 L503.40000 28.12500 L502.68292 28.00549 L500.92703 27.71284 L499.35413 26.86122 L498.71179 26.51343 L498.21932 25.97762 L497.01342 24.66560 L496.30069 23.04056 L496.00962 22.37692 L495.86180 20.59386 z M509.72551 21.08970 L509.57807 19.49441 L509.51028 18.76095 L508.79439 17.32551 L508.46525 16.66553 L507.28246 15.58971 L506.73865 15.09507 L505.25428 14.52032 L504.57180 14.25606 L502.96634 14.25606 L502.22820 14.25606 L500.74382 14.83082 L500.06135 15.09507 L498.87856 16.17090 L498.33475 16.66553 L497.61886 18.10097 L497.28972 18.76095 L497.14228 20.35623 L497.07449 21.08970 L497.51230 22.62630 L497.71360 23.33279 L498.67878 24.60995 L499.12254 25.19715 L500.48450 26.03904 L501.11068 26.42612 L502.67896 26.71851 L503.40000 26.85294 L504.96827 26.56055 L505.68932 26.42612 L507.05127 25.58423 L507.67746 25.19715 L508.64264 23.91999 L509.08640 23.33279 L509.52422 21.79618 z"/>
<path fill="#000000" stroke="#000000" d="M509.52422 21.79618 L509.08640 23.33279 L508.64264 23.91999 L507.67746 25.19715 L507.05127 25.58423 L505.68932 26.42612 L504.96827 26.56055 L503.40000 26.85294 L502.67896 26.71851 L501.11068 26.42612 L500.48450 26.03904 L499.12254 25.19715 L498.67878 24.60995 L497.71360 23.33279 L497.51230 22.62630 L497.07449 21.08970 L497.14228 20.35623 L497.28972 18.76095 L497.61886 18.10097 L498.33475 16.66553 L498.87856 16.17090 L500.06135 15.09507 L500.74382 14.83082 L502.22820 14.25606 L502.96634 14.25606 L504.57180 14.25606 L505.25428 14.52032 L506.73865 15.09507 L507.28246 15.58971 L508.46525 16.66553 L508.79439 17.32551 L509.51028 18.76095 L509.57807 19.49441 L509.72551 21.08970 z"/>
</svg>