<?xml version="1.0" encoding="UTF-8"?>
<!-- Generated by jsxcad -->
<!DOCTYPE svg PUBLIC "-//W3C//DTD SVG 1.1 Tiny//EN" "http://www.w3.org/Graphics/SVG/1.1/DTD/svg11-tiny.dtd">
<svg baseProfile="tiny" height="41.00000mm" width="733.40000mm" viewBox="-0.00000 -0.00000 733.40000 41.00000" version="1.1" stroke="black" stroke-width=".1" fill="none" xmlns="http://www.w3.org/2000/svg">
<path fill="#000000" stroke="#000000" d="M0.00000 0.00000 L100.00000 0.00000 L100.00000 41.00000 L0.00000 41.00000 z"/>
<path fill="#000000" stroke="#000000" d="M633.40000 0.00000 L733.40000 0.00000 L733.40000 41.00000 L633.40000 41.00000 z"/>
<path fill="#000000" stroke="#000000" d="M100.00000 0.00000 L633.40000 0.00000 L633.40000 41.00000 L100.00000 41.00000 z M177.59857 19.86568 L177.42065 19.16293 L176.98497 17.44210 L176.58614 16.83120 L175.60951 15.33531 L175.03707 14.88937 L173.63536 13.79740 L172.94719 13.56043 L171.26207 12.98017 L169.46985 12.98017 L168.73793 12.98017 L167.05281 13.56043 L166.36464 13.79740 L165.79220 14.24335 L164.39049 15.33531 L163.99165 15.94621 L163.01503 17.44210 L162.83710 18.14486 L162.40143 19.86568 L162.54925 21.64875 L162.60962 22.37692 L162.90069 23.04056 L163.61342 24.66560 L164.81932 25.97762 L165.31179 26.51343 L165.95413 26.86122 L167.52703 27.71284 L168.24411 27.83235 L170.00000 28.12500 L170.71708 28.00549 L172.47297 27.71284 L173.11532 27.36505 L174.68821 26.51343 L175.89411 25.20141 L176.38658 24.66560 L177.09931 23.04056 L177.39038 22.37692 L177.45075 21.64875 z M247.59857 19.86568 L247.42065 19.16293 L246.98497 17.44210 L246.58614 16.83120 L245.60951 15.33531 L245.03707 14.88937 L243.63536 13.79740 L242.94719 13.56043 L241.26207 12.98017 L239.46985 12.98017 L238.73793 12.98017 L237.05281 13.56043 L236.36464 13.79740 L235.79220 14.24335 L234.39049 15.33531 L233.99165 15.94621 L233.01503 17.44210 L232.83710 18.14486 L232.40143 19.86568 L232.54925 21.64875 L232.60962 22.37692 L232.90069 23.04056 L233.61342 24.66560 L234.81932 25.97762 L235.31179 26.51343 L235.95413 26.86122 L237.52703 27.71284 L238.24411 27.83235 L240.00000 28.12500 L240.71708 28.00549 L242.47297 27.71284 L243.11532 27.36505 L244.68821 26.51343 L245.89411 25.20141 L246.38658 24.66560 L247.09931 23.04056 L247.39038 22.37692 L247.45075 21.64875 z M505.94925 21.64875 L506.00962 22.37692 L506.30069 23.04056 L507.01342 24.66560 L508.21932 25.97762 L508.71179 26.51343 L509.35413 26.86122 L510.92703 27.71284 L511.64411 27.83235 L513.40000 28.12500 L514.11708 28.00549 L515.87297 27.71284 L516.51532 27.36505 L518.08821 26.51343 L519.29411 25.20141 L519.78658 24.66560 L520.49931 23.04056 L520.79038 22.37692 L520.85075 21.64875 L520.99857 19.86568 L520.82065 19.16293 L520.38497 17.44210 L519.98614 16.83120 L519.00951 15.33531 L518.43707 14.88937 L517.03536 13.79740 L516.34719 13.56043 L514.66207 12.98017 L512.86985 12.98017 L512.13793 12.98017 L510.45281 13.56043 L509.76464 13.79740 L509.19220 14.24335 L507.79049 15.33531 L507.39165 15.94621 L506.41503 17.44210 L506.23710 18.14486 L505.80143 19.86568 z M590.99857 19.86568 L590.82065 19.16293 L590.38497 17.44210 L589.98614 16.83120 L589.00951 15.33531 L588.43707 14.88937 L587.03536 13.79740 L586.34719 13.56043 L584.66207 12.98017 L582.86985 12.98017 L582.13793 12.98017 L580.45281 13.56043 L579.76464 13.79740 L579.19220 14.24335 L577.79049 15.33531 L577.39165 15.94621 L576.41503 17.44210 L576.23710 18.14486 L575.80143 19.86568 L575.94925 21.64875 L576.00962 22.37692 L576.30069 23.04056 L577.01342 24.66560 L578.21932 25.97762 L578.71179 26.51343 L579.35413 26.86122 L580.92703 27.71284 L581.64411 27.83235 L583.40000 28.12500 L584.11708 28.00549 L585.87297 27.71284 L586.51532 27.36505 L588.08821 26.51343 L589.29411 25.20141 L589.78658 24.66560 L590.49931 23.04056 L590.79038 22.37692 L590.85075 21.64875 z"/>
<path fill="#000000" stroke="#000000" d="M162.40143 19.86568 L162.83710 18.14486 L163.01503 17.44210 L163.99165 15.94621 L164.39049 15.33531 L165.79220 14.24335 L166.36464 13.79740 L167.05281 13.56043 L168.73793 12.98017 L169.46985 12.98017 L171.26207 12.98017 L172.94719 13.56043 L173.63536 13.79740 L175.03707 14.88937 L175.60951 15.33531 L176.58614 16.83120 L176.98497 17.44210 L177.42065 19.16293 L177.59857 19.86568 L177.45075 21.64875 L177.39038 22.37692 L177.09931 23.04056 L176.38658 24.66560 L175.89411 25.20141 L174.68821 26.51343 L173.11532 27.36505 L172.47297 27.71284 L170.71708 28.00549 L170.00000 28.12500 L168.24411 27.83235 L167.52703 27.71284 L165.95413 26.86122 L165.31179 26.51343 L164.81932 25.97762 L163.61342 24.66560 L162.90069 23.04056 L162.60962 22.37692 L162.54925 21.64875 z M176.32551 21.08970 L176.17807 19.49441 L176.11028 18.76095 L175.39439 17.32551 L175.06525 16.66553 L173.88246 15.58971 L173.33865 15.09507 L171.85428 14.52032 L171.17180 14.25606 L169.56634 14.25606 L168.82820 14.25606 L167.34382 14.83082 L166.66135 15.09507 L165.47856 16.17090 L164.93475 16.66553 L164.21886 18.10097 L163.88972 18.76095 L163.74228 20.35623 L163.67449 21.08970 L164.11230 22.62630 L164.31360 23.33279 L165.27878 24.60995 L165.72254 25.19715 L167.08450 26.03904 L167.71068 26.42612 L169.27896 26.71851 L170.00000 26.85294 L171.56827 26.56055 L172.28932 26.42612 L173.65127 25.58423 L174.27746 25.19715 L175.24264 23.91999 L175.68640 23.33279 L176.12422 21.79618 z"/>
<path fill="#000000" stroke="#000000" d="M176.12422 21.79618 L175.68640 23.33279 L175.24264 23.91999 L174.27746 25.19715 L173.65127 25.58423 L172.28932 26.42612 L171.56827 26.56055 L170.00000 26.85294 L169.27896 26.71851 L167.71068 26.42612 L167.08450 26.03904 L165.72254 25.19715 L165.27878 24.60995 L164.31360 23.33279 L164.11230 22.62630 L163.67449 21.08970 L163.74228 20.35623 L163.88972 18.76095 L164.21886 18.10097 L164.93475 16.66553 L165.47856 16.17090 L166.66135 15.09507 L167.34382 14.83082 L168.82820 14.25606 L169.56634 14.25606 L171.17180 14.25606 L171.85428 14.52032 L173.33865 15.09507 L173.88246 15.58971 L175.06525 16.66553 L175.39439 17.32551 L176.11028 18.76095 L176.17807 19.49441 L176.32551 21.08970 z"/>
<path fill="#000000" stroke="#000000" d="M232.40143 19.86568 L232.83710 18.14486 L233.01503 17.44210 L233.99165 15.94621 L234.39049 15.33531 L235.79220 14.24335 L236.36464 13.79740 L237.05281 13.56043 L238.73793 12.98017 L239.46985 12.98017 L241.26207 12.98017 L242.94719 13.56043 L243.63536 13.79740 L245.03707 14.88937 L245.60951 15.33531 L246.58614 16.83120 L246.98497 17.44210 L247.42065 19.16293 L247.59857 19.86568 L247.45075 21.64875 L247.39038 22.37692 L247.09931 23.04056 L246.38658 24.66560 L245.89411 25.20141 L244.68821 26.51343 L243.11532 27.36505 L242.47297 27.71284 L240.71708 28.00549 L240.00000 28.12500 L238.24411 27.83235 L237.52703 27.71284 L235.95413 26.86122 L235.31179 26.51343 L234.81932 25.97762 L233.61342 24.66560 L232.90069 23.04056 L232.60962 22.37692 L232.54925 21.64875 z M246.32551 21.08970 L246.17807 19.49441 L246.11028 18.76095 L245.39439 17.32551 L245.06525 16.66553 L243.88246 15.58971 L243.33865 15.09507 L241.85428 14.52032 L241.17180 14.25606 L239.56634 14.25606 L238.82820 14.25606 L237.34382 14.83082 L236.66135 15.09507 L235.47856 16.17090 L234.93475 16.66553 L234.21886 18.10097 L233.88972 18.76095 L233.74228 20.35623 L233.67449 21.08970 L234.11230 22.62630 L234.31360 23.33279 L235.27878 24.60995 L235.72254 25.19715 L237.08450 26.03904 L237.71068 26.42612 L239.27896 26.71851 L240.00000 26.85294 L241.56827 26.56055 L242.28932 26.42612 L243.65127 25.58423 L244.27746 25.19715 L245.24264 23.91999 L245.68640 23.33279 L246.12422 21.79618 z"/>
<path fill="#000000" stroke="#000000" d="M246.12422 21.79618 L245.68640 23.33279 L245.24264 23.91999 L244.27746 25.19715 L243.65127 25.58423 L242.28932 26.42612 L241.56827 26.56055 L240.00000 26.85294 L239.27896 26.71851 L237.71068 26.42612 L237.08450 26.03904 L235.72254 25.19715 L235.27878 24.60995 L234.31360 23.33279 L234.11230 22.62630 L233.67449 21.08970 L233.74228 20.35623 L233.88972 18.76095 L234.21886 18.10097 L234.93475 16.66553 L235.47856 16.17090 L236.66135 15.09507 L237.34382 14.83082 L238.82820 14.25606 L239.56634 14.25606 L241.17180 14.25606 L241.85428 14.52032 L243.33865 15.09507 L243.88246 15.58971 L245.06525 16.66553 L245.39439 17.32551 L246.11028 18.76095 L246.17807 19.49441 L246.32551 21.08970 z"/>
<path fill="#000000" stroke="#000000" d="M575.80143 19.86568 L576.23710 18.14486 L576.41503 17.44210 L577.39165 15.94621 L577.79049 15.33531 L579.19220 14.24335 L579.76464 13.79740 L580.45281 13.56043 L582.13793 12.98017 L582.86985 12.98017 L584.66207 12.98017 L586.34719 13.56043 L587.03536 13.79740 L588.43707 14.88937 L589.00951 15.33531 L589.98614 16.83120 L590.38497 17.44210 L590.82065 19.16293 L590.99857 19.86568 L590.85075 21.64875 L590.79038 22.37692 L590.49931 23.04056 L589.78658 24.66560 L589.29411 25.20141 L588.08821 26.51343 L586.51532 27.36505 L585.87297 27.71284 L584.11708 28.00549 L583.40000 28.12500 L581.64411 27.83235 L580.92703 27.71284 L579.35413 26.86122 L578.71179 26.51343 L578.21932 25.97762 L577.01342 24.66560 L576.30069 23.04056 L576.00962 22.37692 L575.94925 21.64875 z M589.72551 21.08970 L589.57807 19.49441 L589.51028 18.76095 L588.79439 17.32551 L588.46525 16.66553 L587.28246 15.58971 L586.73865 15.09507 L585.25428 14.52032 L584.57180 14.25606 L582.96634 14.25606 L582.22820 14.25606 L580.74382 14.83082 L580.06135 15.09507 L578.87856 16.17090 L578.33475 16.66553 L577.61886 18.10097 L577.28972 18.76095 L577.14228 20.35623 L577.07449 21.08970 L577.51230 22.62630 L577.71360 23.33279 L578.67878 24.60995 L579.12254 25.19715 L580.48450 26.03904 L581.11068 26.42612 L582.67896 26.71851 L583.40000 26.85294 L584.96827 26.56055 L585.68932 26.42612 L587.05127 25.58423 L587.67746 25.19715 L588.64264 23.91999 L589.08640 23.33279 L589.52422 21.79618 z"/>
<path fill="#000000" stroke="#000000" d="M589.52422 21.79618 L589.08640 23.33279 L588.64264 23.91999 L587.67746 25.19715 L587.05127 25.58423 L585.68932 26.42612 L584.96827 26.56055 L583.40000 26.85294 L582.67896 26.71851 L581.11068 26.42612 L580.48450 26.03904 L579.12254 25.19715 L578.67878 24.60995 L577.71360 23.33279 L577.51230 22.62630 L577.07449 21.08970 L577.14228 20.35623 L577.28972 18.76095 L577.61886 18.10097 L578.33475 16.66553 L578.87856 16.17090 L580.06135 15.09507 L580.74382 14.83082 L582.22820 14.25606 L582.96634 14.25606 L584.57180 14.25606 L585.25428 14.52032 L586.73865 15.09507 L587.28246 15.58971 L588.46525 16.66553 L588.79439 17.32551 L589.51028 18.76095 L589.57807 19.49441 L589.72551 21.08970 z"/>
<path fill="#000000" stroke="#000000" d="M505.80143 19.86568 L506.23710 18.14486 L506.41503 17.44210 L507.39165 15.94621 L507.79049 15.33531 L509.19220 14.24335 L509.76464 13.79740 L510.45281 13.56043 L512.13793 12.98017 L512.86985 12.98017 L514.66207 12.98017 L516.34719 13.56043 L517.03536 13.79740 L518.43707 14.88937 L519.00951 15.33531 L519.98614 16.83120 L520.38497 17.44210 L520.82065 19.16293 L520.99857 19.86568 L520.85075 21.64875 L520.79038 22.37692 L520.49931 23.04056 L519.78658 24.66560 L519.29411 25.20141 L518.08821 26.51343 L516.51532 27.36505 L515.87297 27.71284 L514.11708 28.00549 L513.40000 28.12500 L511.64411 27.83235 L510.92703 27.71284 L509.35413 26.86122 L508.71179 26.51343 L508.21932 25.97762 L507.01342 24.66560 L506.30069 23.04056 L506.00962 22.37692 L505.94925 21.64875 z M519.72551 21.08970 L519.57807 19.49441 L519.51028 18.76095 L518.79439 17.32551 L518.46525 16.66553 L517.28246 15.58971 L516.73865 15.09507 L515.25428 14.52032 L514.57180 14.25606 L512.96634 14.25606 L512.22820 14.25606 L510.74382 14.83082 L510.06135 15.09507 L508.87856 16.17090 L508.33475 16.66553 L507.61886 18.10097 L507.28972 18.76095 L507.14228 20.35623 L507.07449 21.08970 L507.51230 22.62630 L507.71360 23.33279 L508.67878 24.60995 L509.12254 25.19715 L510.48450 26.03904 L511.11068 26.42612 L512.67896 26.71851 L513.40000 26.85294 L514.96827 26.56055 L515.68932 26.42612 L517.05127 25.58423 L517.67746 25.19715 L518.64264 23.91999 L519.08640 23.33279 L519.52422 21.79618 z"/>
<path fill="#000000" stroke="#000000" d="M519.52422 21.79618 L519.08640 23.33279 L518.64264 23.91999 L517.67746 25.19715 L517.05127 25.58423 L515.68932 26.42612 L514.96827 26.56055 L513.40000 26.85294 L512.67896 26.71851 L511.11068 26.42612 L510.48450 26.03904 L509.12254 25.19715 L508.67878 24.60995 L507.71360 23.33279 L507.51230 22.62630 L507.07449 21.08970 L507.14228 20.35623 L507.28972 18.76095 L507.61886 18.10097 L508.33475 16.66553 L508.87856 16.17090 L510.06135 15.09507 L510.74382 14.83082 L512.22820 14.25606 L512.96634 14.25606 L514.57180 14.25606 L515.25428 14.52032 L516.73865 15.09507 L517.28246 15.58971 L518.46525 16.66553 L518.79439 17.32551 L519.51028 18.76095 L519.57807 19.49441 L519.72551 21.08970 z"/>
</svg>