<?xml version="1.0" encoding="UTF-8"?>
<!-- Generated by jsxcad -->
<!DOCTYPE svg PUBLIC "-//W3C//DTD SVG 1.1 Tiny//EN" "http://www.w3.org/Graphics/SVG/1.1/DTD/svg11-tiny.dtd">
<svg baseProfile="tiny" height="41.00000mm" width="733.40000mm" viewBox="-0.00000 -0.00000 733.40000 41.00000" version="1.1" stroke="black" stroke-width=".1" fill="none" xmlns="http://www.w3.org/2000/svg">
<path fill="#000000" stroke="#000000" d="M0.00000 0.00000 L100.00000 0.00000 L100.00000 41.00000 L0.00000 41.00000 z"/>
<path fill="#000000" stroke="#000000" d="M633.40000 0.00000 L733.40000 0.00000 L733.40000 41.00000 L633.40000 41.00000 z"/>
<path fill="#000000" stroke="#000000" d="M100.00000 0.00000 L633.40000 0.00000 L633.40000 41.00000 L100.00000 41.00000 z M187.59857 19.86568 L187.42065 19.16293 L186.98497 17.44210 L186.58614 16.83120 L185.60951 15.33531 L185.03707 14.88937 L183.63536 13.79740 L182.94719 13.56043 L181.26207 12.98017 L180.53015 12.98017 L178.73793 12.98017 L178.04976 13.21714 L176.36464 13.79740 L174.96293 14.88937 L174.39049 15.33531 L173.41476 16.82983 L173.01592 17.44072 L173.01503 17.44210 L173.01463 17.44368 L172.83670 18.14644 L172.69751 18.69621 L172.40143 19.86568 L172.46180 20.59386 L172.60962 22.37692 L172.90069 23.04056 L173.61342 24.66560 L174.81932 25.97762 L175.31179 26.51343 L175.95413 26.86122 L177.52703 27.71284 L179.28292 28.00549 L180.00000 28.12500 L181.75589 27.83235 L182.47297 27.71284 L184.04587 26.86122 L184.68821 26.51343 L185.89300 25.20262 L186.38547 24.66681 L186.38658 24.66560 L186.38723 24.66411 L186.67830 24.00047 L186.79511 23.73414 L187.39038 22.37692 L187.45075 21.64875 z M242.46180 20.59386 L242.60962 22.37692 L242.90069 23.04056 L243.61342 24.66560 L244.81932 25.97762 L245.31179 26.51343 L245.95413 26.86122 L247.52703 27.71284 L249.28292 28.00549 L250.00000 28.12500 L251.75589 27.83235 L252.47297 27.71284 L254.04587 26.86122 L254.68821 26.51343 L255.89300 25.20262 L256.38547 24.66681 L256.38658 24.66560 L256.38723 24.66411 L256.67830 24.00047 L256.79511 23.73414 L257.39038 22.37692 L257.45075 21.64875 L257.59857 19.86568 L257.42065 19.16293 L256.98497 17.44210 L256.58614 16.83120 L255.60951 15.33531 L255.03707 14.88937 L253.63536 13.79740 L252.94719 13.56043 L251.26207 12.98017 L250.53015 12.98017 L248.73793 12.98017 L248.04976 13.21714 L246.36464 13.79740 L244.96293 14.88937 L244.39049 15.33531 L243.41476 16.82983 L243.01592 17.44072 L243.01503 17.44210 L243.01463 17.44368 L242.83670 18.14644 L242.69751 18.69621 L242.40143 19.86568 z"/>
<path fill="#000000" stroke="#000000" d="M172.40143 19.86568 L172.69751 18.69621 L172.83670 18.14644 L173.01463 17.44368 L173.01503 17.44210 L173.01592 17.44072 L173.41476 16.82983 L174.39049 15.33531 L174.96293 14.88937 L176.36464 13.79740 L178.04976 13.21714 L178.73793 12.98017 L180.53015 12.98017 L181.26207 12.98017 L182.94719 13.56043 L183.63536 13.79740 L185.03707 14.88937 L185.60951 15.33531 L186.58614 16.83120 L186.98497 17.44210 L187.42065 19.16293 L187.59857 19.86568 L187.45075 21.64875 L187.39038 22.37692 L186.79511 23.73414 L186.67830 24.00047 L186.38723 24.66411 L186.38658 24.66560 L186.38547 24.66681 L185.89300 25.20262 L184.68821 26.51343 L184.04587 26.86122 L182.47297 27.71284 L181.75589 27.83235 L180.00000 28.12500 L179.28292 28.00549 L177.52703 27.71284 L175.95413 26.86122 L175.31179 26.51343 L174.81932 25.97762 L173.61342 24.66560 L172.90069 23.04056 L172.60962 22.37692 L172.46180 20.59386 z M186.32551 21.08970 L186.17807 19.49441 L186.11028 18.76095 L185.39439 17.32551 L185.06525 16.66553 L183.88246 15.58971 L183.33865 15.09507 L181.85428 14.52032 L181.17180 14.25606 L179.56634 14.25606 L178.82820 14.25606 L177.34382 14.83082 L176.66135 15.09507 L175.47856 16.17090 L174.93475 16.66553 L174.21886 18.10097 L173.88972 18.76095 L173.74228 20.35623 L173.67449 21.08970 L174.11230 22.62630 L174.31360 23.33279 L175.27878 24.60995 L175.72254 25.19715 L177.08450 26.03904 L177.71068 26.42612 L179.27896 26.71851 L180.00000 26.85294 L181.56827 26.56055 L182.28932 26.42612 L183.65127 25.58423 L184.27746 25.19715 L185.24264 23.91999 L185.68640 23.33279 L186.12422 21.79618 z"/>
<path fill="#000000" stroke="#000000" d="M186.12422 21.79618 L185.68640 23.33279 L185.24264 23.91999 L184.27746 25.19715 L183.65127 25.58423 L182.28932 26.42612 L181.56827 26.56055 L180.00000 26.85294 L179.27896 26.71851 L177.71068 26.42612 L177.08450 26.03904 L175.72254 25.19715 L175.27878 24.60995 L174.31360 23.33279 L174.11230 22.62630 L173.67449 21.08970 L173.74228 20.35623 L173.88972 18.76095 L174.21886 18.10097 L174.93475 16.66553 L175.47856 16.17090 L176.66135 15.09507 L177.34382 14.83082 L178.82820 14.25606 L179.56634 14.25606 L181.17180 14.25606 L181.85428 14.52032 L183.33865 15.09507 L183.88246 15.58971 L185.06525 16.66553 L185.39439 17.32551 L186.11028 18.76095 L186.17807 19.49441 L186.32551 21.08970 z"/>
<path fill="#000000" stroke="#000000" d="M242.40143 19.86568 L242.69751 18.69621 L242.83670 18.14644 L243.01463 17.44368 L243.01503 17.44210 L243.01592 17.44072 L243.41476 16.82983 L244.39049 15.33531 L244.96293 14.88937 L246.36464 13.79740 L248.04976 13.21714 L248.73793 12.98017 L250.53015 12.98017 L251.26207 12.98017 L252.94719 13.56043 L253.63536 13.79740 L255.03707 14.88937 L255.60951 15.33531 L256.58614 16.83120 L256.98497 17.44210 L257.42065 19.16293 L257.59857 19.86568 L257.45075 21.64875 L257.39038 22.37692 L256.79511 23.73414 L256.67830 24.00047 L256.38723 24.66411 L256.38658 24.66560 L256.38547 24.66681 L255.89300 25.20262 L254.68821 26.51343 L254.04587 26.86122 L252.47297 27.71284 L251.75589 27.83235 L250.00000 28.12500 L249.28292 28.00549 L247.52703 27.71284 L245.95413 26.86122 L245.31179 26.51343 L244.81932 25.97762 L243.61342 24.66560 L242.90069 23.04056 L242.60962 22.37692 L242.46180 20.59386 z M256.32551 21.08970 L256.17807 19.49441 L256.11028 18.76095 L255.39439 17.32551 L255.06525 16.66553 L253.88246 15.58971 L253.33865 15.09507 L251.85428 14.52032 L251.17180 14.25606 L249.56634 14.25606 L248.82820 14.25606 L247.34382 14.83082 L246.66135 15.09507 L245.47856 16.17090 L244.93475 16.66553 L244.21886 18.10097 L243.88972 18.76095 L243.74228 20.35623 L243.67449 21.08970 L244.11230 22.62630 L244.31360 23.33279 L245.27878 24.60995 L245.72254 25.19715 L247.08450 26.03904 L247.71068 26.42612 L249.27896 26.71851 L250.00000 26.85294 L251.56827 26.56055 L252.28932 26.42612 L253.65127 25.58423 L254.27746 25.19715 L255.24264 23.91999 L255.68640 23.33279 L256.12422 21.79618 z"/>
<path fill="#000000" stroke="#000000" d="M256.12422 21.79618 L255.68640 23.33279 L255.24264 23.91999 L254.27746 25.19715 L253.65127 25.58423 L252.28932 26.42612 L251.56827 26.56055 L250.00000 26.85294 L249.27896 26.71851 L247.71068 26.42612 L247.08450 26.03904 L245.72254 25.19715 L245.27878 24.60995 L244.31360 23.33279 L244.11230 22.62630 L243.67449 21.08970 L243.74228 20.35623 L243.88972 18.76095 L244.21886 18.10097 L244.93475 16.66553 L245.47856 16.17090 L246.66135 15.09507 L247.34382 14.83082 L248.82820 14.25606 L249.56634 14.25606 L251.17180 14.25606 L251.85428 14.52032 L253.33865 15.09507 L253.88246 15.58971 L255.06525 16.66553 L255.39439 17.32551 L256.11028 18.76095 L256.17807 19.49441 L256.32551 21.08970 z"/>
</svg>